<svg width="1038" height="353" xmlns="http://www.w3.org/2000/svg" xmlns:xlink="http://www.w3.org/1999/xlink" xml:space="preserve" overflow="hidden"><defs><clipPath id="clip0"><rect x="80" y="1909" width="1038" height="353"/></clipPath></defs><g clip-path="url(#clip0)" transform="translate(-80 -1909)"><path d="M974.234 173.714 974.234 222.795 974.298 222.795C975.001 228.635 992.733 233.323 1014.58 233.323 1036.42 233.323 1054.18 228.635 1054.86 222.795L1054.94 222.795 1054.94 173.714 974.234 173.714Z" stroke="#000000" stroke-width="1.0656" stroke-miterlimit="10" fill="none" transform="matrix(1 0 0 1.00045 42.4075 1909)"/><path d="M1054.96 173.714C1054.96 179.717 1036.89 184.583 1014.6 184.583 992.306 184.583 974.234 179.717 974.234 173.714 974.234 167.711 992.306 162.845 1014.6 162.845 1036.89 162.845 1054.96 167.711 1054.96 173.714Z" stroke="#000000" stroke-width="1.0656" stroke-miterlimit="10" fill="#FFFFFF" transform="matrix(1 0 0 1.00045 42.4075 1909)"/><path d="M285.048 114.381 349.964 114.381 349.964 159.03 285.048 159.03Z" fill="#1C75BC" transform="matrix(1 0 0 1.00045 42.4075 1909)"/><text fill="#FFFFFF" font-family="Arial,Arial_MSFontService,sans-serif" font-weight="400" font-size="8" transform="matrix(2.1312 0 0 2.13216 349.114 2040)">RL</text><text fill="#FFFFFF" font-family="Arial,Arial_MSFontService,sans-serif" font-weight="400" font-size="8" transform="matrix(2.1312 0 0 2.13216 337.734 2060)">Agent</text><path d="M242.615 136.716 269.575 136.716" stroke="#000000" stroke-width="1.0656" stroke-miterlimit="10" fill="none" transform="matrix(1 0 0 1.00045 42.4075 1909)"/><path d="M276.011 136.716C272.985 137.846 269.234 139.764 266.911 141.789L268.744 136.716 266.911 131.644C269.234 133.669 272.985 135.587 276.011 136.716Z" transform="matrix(1 0 0 1.00045 42.4075 1909)"/><path d="M534.014 287.669 560.995 287.669" stroke="#000000" stroke-width="1.0656" stroke-miterlimit="10" fill="none" transform="matrix(1 0 0 1.00045 42.4075 1909)"/><path d="M567.431 287.669C564.405 288.798 560.654 290.717 558.331 292.741L560.164 287.669 558.331 282.597C560.654 284.621 564.405 286.539 567.431 287.669Z" transform="matrix(1 0 0 1.00045 42.4075 1909)"/><path d="M181.088 271.834 197.008 271.834" stroke="#000000" stroke-width="1.0656" stroke-miterlimit="10" fill="none" transform="matrix(1 0 0 1.00045 42.4075 1909)"/><path d="M203.444 271.834C200.418 272.964 196.667 274.882 194.344 276.906L196.177 271.834 194.344 266.762C196.667 268.787 200.418 270.705 203.444 271.834Z" transform="matrix(1 0 0 1.00045 42.4075 1909)"/><path d="M181.088 302.374 197.008 302.374" stroke="#000000" stroke-width="1.0656" stroke-miterlimit="10" fill="none" transform="matrix(1 0 0 1.00045 42.4075 1909)"/><path d="M203.444 302.374C200.418 303.504 196.667 305.422 194.344 307.446L196.177 302.374 194.344 297.302C196.667 299.348 200.418 301.266 203.444 302.374Z" transform="matrix(1 0 0 1.00045 42.4075 1909)"/><path d="M685.542 287.669 712.502 287.669" stroke="#000000" stroke-width="1.0656" stroke-miterlimit="10" fill="none" transform="matrix(1 0 0 1.00045 42.4075 1909)"/><path d="M718.938 287.669C715.912 288.798 712.161 290.717 709.838 292.741L711.671 287.669 709.838 282.597C712.161 284.621 715.912 286.539 718.938 287.669Z" transform="matrix(1 0 0 1.00045 42.4075 1909)"/><path d="M317.506 109.821 317.506 86.9741" stroke="#000000" stroke-width="1.0656" stroke-miterlimit="10" fill="none" transform="matrix(1 0 0 1.00045 42.4075 1909)"/><path d="M317.506 80.5592C318.635 83.5855 320.553 87.3364 322.578 89.6594L317.506 87.8266 312.433 89.6594C314.479 87.3364 316.397 83.5855 317.506 80.5592Z" transform="matrix(1 0 0 1.00045 42.4075 1909)"/><text font-family="Arial,Arial_MSFontService,sans-serif" font-weight="400" font-size="8" transform="matrix(2.1312 0 0 2.13216 331.971 1986)">param</text><text font-family="Arial,Arial_MSFontService,sans-serif" font-weight="400" font-size="8" transform="matrix(2.1312 0 0 2.13216 378.857 1986)">-</text><text font-family="Arial,Arial_MSFontService,sans-serif" font-weight="400" font-size="8" transform="matrix(2.1312 0 0 2.13216 385.251 1986)">1</text><text fill="#1C75BC" font-family="Arial,Arial_MSFontService,sans-serif" font-weight="400" font-size="8" transform="matrix(2.1312 0 0 2.13216 326.487 1969)">(</text><text fill="#1C75BC" font-family="Arial,Arial_MSFontService,sans-serif" font-weight="400" font-size="8" transform="matrix(2.1312 0 0 2.13216 332.881 1969)">action</text><text fill="#1C75BC" font-family="Arial,Arial_MSFontService,sans-serif" font-weight="400" font-size="8" transform="matrix(2.1312 0 0 2.13216 375.505 1969)">-</text><text fill="#1C75BC" font-family="Arial,Arial_MSFontService,sans-serif" font-weight="400" font-size="8" transform="matrix(2.1312 0 0 2.13216 381.899 1969)">1</text><text fill="#1C75BC" font-family="Arial,Arial_MSFontService,sans-serif" font-weight="400" font-size="8" transform="matrix(2.1312 0 0 2.13216 390.423 1969)">)</text><path d="M109.522 150.825 73.3132 150.825C65.5556 150.825 59.1833 144.474 59.1833 136.695L59.1833 136.695C59.1833 128.937 65.5343 122.565 73.3132 122.565L109.522 122.565C117.28 122.565 123.652 128.916 123.652 136.695L123.652 136.695C123.631 144.474 117.28 150.825 109.522 150.825Z" stroke="#FFFFFF" stroke-width="0.532799" stroke-miterlimit="10" fill="#00A651" transform="matrix(1 0 0 1.00045 42.4075 1909)"/><text fill="#FFFFFF" font-family="Arial,Arial_MSFontService,sans-serif" font-weight="400" font-size="8" transform="matrix(2.1312 0 0 2.13216 111.064 2052)">netlist</text><path d="" stroke="#FFFFFF" stroke-width="6.39359" stroke-miterlimit="10" fill="none" transform="matrix(1 0 0 1.00045 42.4075 1909)"/><path d="M892.076 132.411 855.867 132.411C848.11 132.411 841.737 126.06 841.737 118.281L841.737 118.281C841.737 110.524 848.088 104.152 855.867 104.152L892.076 104.152C899.834 104.152 906.206 110.503 906.206 118.281L906.206 118.281C906.206 126.06 899.855 132.411 892.076 132.411Z" stroke="#FFFFFF" stroke-width="0.532799" stroke-miterlimit="10" fill="#00A651" transform="matrix(1 0 0 1.00045 42.4075 1909)"/><text fill="#FFFFFF" font-family="Arial,Arial_MSFontService,sans-serif" font-weight="400" font-size="8" transform="matrix(2.1312 0 0 2.13216 893.625 2033)">netlist</text><path d="" stroke="#FFFFFF" stroke-width="6.39359" stroke-miterlimit="10" fill="none" transform="matrix(1 0 0 1.00045 42.4075 1909)"/><path d="M501.044 278.569 462.747 278.569C455.565 278.569 449.683 272.687 449.683 265.504L449.683 265.504C449.683 258.322 455.565 252.44 462.747 252.44L501.044 252.44C508.227 252.44 514.109 258.322 514.109 265.504L514.109 265.504C514.109 272.687 508.227 278.569 501.044 278.569Z" stroke="#FFFFFF" stroke-width="0.532799" stroke-miterlimit="10" fill="#00A651" transform="matrix(1 0 0 1.00045 42.4075 1909)"/><text fill="#FFFFFF" font-family="Arial,Arial_MSFontService,sans-serif" font-weight="400" font-size="7" transform="matrix(2.30169 0 0 2.13216 501.54 2180)">netlist</text><path d="" stroke="#FFFFFF" stroke-width="6.39359" stroke-miterlimit="10" fill="none" transform="matrix(1 0 0 1.00045 42.4075 1909)"/><path d="M490.431 296.428 454.222 296.428C446.464 296.428 440.092 290.077 440.092 282.298L440.092 282.298C440.092 274.541 446.443 268.168 454.222 268.168L490.431 268.168C498.189 268.168 504.561 274.519 504.561 282.298L504.561 282.298C504.561 290.077 498.21 296.428 490.431 296.428Z" stroke="#FFFFFF" stroke-width="0.532799" stroke-miterlimit="10" fill="#00A651" transform="matrix(1 0 0 1.00045 42.4075 1909)"/><text fill="#FFFFFF" font-family="Arial,Arial_MSFontService,sans-serif" font-weight="400" font-size="8" transform="matrix(2.1312 0 0 2.13216 491.986 2197)">netlist</text><path d="" stroke="#FFFFFF" stroke-width="6.39359" stroke-miterlimit="10" fill="none" transform="matrix(1 0 0 1.00045 42.4075 1909)"/><path d="M481.459 313.35 445.25 313.35C437.492 313.35 431.12 306.999 431.12 299.22L431.12 299.22C431.12 291.462 437.471 285.09 445.25 285.09L481.459 285.09C489.216 285.09 495.588 291.441 495.588 299.22L495.588 299.22C495.567 306.978 489.216 313.35 481.459 313.35Z" stroke="#FFFFFF" stroke-width="0.532799" stroke-miterlimit="10" fill="#00A651" transform="matrix(1 0 0 1.00045 42.4075 1909)"/><text fill="#FFFFFF" font-family="Arial,Arial_MSFontService,sans-serif" font-weight="400" font-size="8" transform="matrix(2.1312 0 0 2.13216 482.994 2214)">netlist</text><path d="" stroke="#FFFFFF" stroke-width="6.39359" stroke-miterlimit="10" fill="none" transform="matrix(1 0 0 1.00045 42.4075 1909)"/><path d="M410.554 279.613 368.889 279.613C361.131 279.613 354.759 273.262 354.759 265.483L354.759 265.483C354.759 257.726 361.11 251.353 368.889 251.353L410.554 251.353C418.311 251.353 424.684 257.704 424.684 265.483L424.684 265.483C424.662 273.262 418.311 279.613 410.554 279.613Z" stroke="#FFFFFF" stroke-width="0.532799" stroke-miterlimit="10" fill="#BE1E2D" transform="matrix(1 0 0 1.00045 42.4075 1909)"/><text fill="#FFFFFF" font-family="Arial,Arial_MSFontService,sans-serif" font-weight="400" font-size="8" transform="matrix(2.1312 0 0 2.13216 403.46 2177)">params</text><path d="" stroke="#FFFFFF" stroke-width="6.39359" stroke-miterlimit="10" fill="none" transform="matrix(1 0 0 1.00045 42.4075 1909)"/><path d="M401.006 296.428 359.341 296.428C351.584 296.428 345.211 290.077 345.211 282.298L345.211 282.298C345.211 274.541 351.562 268.168 359.341 268.168L401.006 268.168C408.764 268.168 415.136 274.519 415.136 282.298L415.136 282.298C415.136 290.077 408.785 296.428 401.006 296.428Z" stroke="#FFFFFF" stroke-width="0.532799" stroke-miterlimit="10" fill="#BE1E2D" transform="matrix(1 0 0 1.00045 42.4075 1909)"/><text fill="#FFFFFF" font-family="Arial,Arial_MSFontService,sans-serif" font-weight="400" font-size="8" transform="matrix(2.1312 0 0 2.13216 393.927 2194)">params</text><path d="" stroke="#FFFFFF" stroke-width="6.39359" stroke-miterlimit="10" fill="none" transform="matrix(1 0 0 1.00045 42.4075 1909)"/><path d="M393.803 313.35 352.138 313.35C344.38 313.35 338.008 306.999 338.008 299.22L338.008 299.22C338.008 291.462 344.359 285.09 352.138 285.09L393.803 285.09C401.56 285.09 407.932 291.441 407.932 299.22L407.932 299.22C407.911 306.978 401.56 313.35 393.803 313.35Z" stroke="#FFFFFF" stroke-width="0.532799" stroke-miterlimit="10" fill="#BE1E2D" transform="matrix(1 0 0 1.00045 42.4075 1909)"/><text fill="#FFFFFF" font-family="Arial,Arial_MSFontService,sans-serif" font-weight="400" font-size="8" transform="matrix(2.1312 0 0 2.13216 386.709 2211)">params</text><path d="" stroke="#FFFFFF" stroke-width="6.39359" stroke-miterlimit="10" fill="none" transform="matrix(1 0 0 1.00045 42.4075 1909)"/><text fill="#FFFFFF" font-family="Arial,Arial_MSFontService,sans-serif" font-weight="400" font-size="8" transform="matrix(2.1312 0 0 2.13216 754.766 2040)">RL</text><text fill="#FFFFFF" font-family="Arial,Arial_MSFontService,sans-serif" font-weight="400" font-size="8" transform="matrix(2.1312 0 0 2.13216 743.386 2061)">Agent</text><path d="M480.883 114.381 545.799 114.381 545.799 159.03 480.883 159.03Z" fill="#1C75BC" transform="matrix(1 0 0 1.00045 42.4075 1909)"/><text fill="#FFFFFF" font-family="Arial,Arial_MSFontService,sans-serif" font-weight="400" font-size="8" transform="matrix(2.1312 0 0 2.13216 544.939 2040)">RL</text><text fill="#FFFFFF" font-family="Arial,Arial_MSFontService,sans-serif" font-weight="400" font-size="8" transform="matrix(2.1312 0 0 2.13216 533.559 2060)">Agent</text><path d="M703.87 114.381 768.787 114.381 768.787 159.03 703.87 159.03Z" fill="#1C75BC" transform="matrix(1 0 0 1.00045 42.4075 1909)"/><text fill="#FFFFFF" font-family="Arial,Arial_MSFontService,sans-serif" font-weight="400" font-size="8" transform="matrix(2.1312 0 0 2.13216 767.939 2040)">RL</text><text fill="#FFFFFF" font-family="Arial,Arial_MSFontService,sans-serif" font-weight="400" font-size="8" transform="matrix(2.1312 0 0 2.13216 756.559 2060)">Agent</text><path d="M754.465 260.326 819.381 260.326 819.381 285.261 754.465 285.261Z" stroke="#FFFFFF" stroke-width="0.532799" stroke-miterlimit="10" fill="#5AC7D4" transform="matrix(1 0 0 1.00045 42.4075 1909)"/><text fill="#FFFFFF" font-family="Arial,Arial_MSFontService,sans-serif" font-weight="400" font-size="8" transform="matrix(2.1312 0 0 2.13216 811.132 2188)">PPA</text><path d="M745.855 273.923 810.771 273.923 810.771 298.858 745.855 298.858Z" stroke="#FFFFFF" stroke-width="0.532799" stroke-miterlimit="10" fill="#5AC7D4" transform="matrix(1 0 0 1.00045 42.4075 1909)"/><text fill="#FFFFFF" font-family="Arial,Arial_MSFontService,sans-serif" font-weight="400" font-size="8" transform="matrix(2.1312 0 0 2.13216 802.526 2202)">PPA</text><path d="M739.27 288.053 804.186 288.053 804.186 312.988 739.27 312.988Z" stroke="#FFFFFF" stroke-width="0.532799" stroke-miterlimit="10" fill="#5AC7D4" transform="matrix(1 0 0 1.00045 42.4075 1909)"/><text fill="#FFFFFF" font-family="Arial,Arial_MSFontService,sans-serif" font-weight="400" font-size="8" transform="matrix(2.1312 0 0 2.13216 795.941 2216)">PPA</text><path d="M442.543 136.716 469.396 136.716" stroke="#000000" stroke-width="1.0656" stroke-miterlimit="10" fill="none" transform="matrix(1 0 0 1.00045 42.4075 1909)"/><path d="M475.832 136.716C472.806 137.846 469.055 139.764 466.732 141.789L468.565 136.716 466.732 131.644C469.055 133.669 472.806 135.587 475.832 136.716Z" transform="matrix(1 0 0 1.00045 42.4075 1909)"/><path d="M126.167 136.716 152.956 136.716" stroke="#000000" stroke-width="1.0656" stroke-miterlimit="10" fill="none" transform="matrix(1 0 0 1.00045 42.4075 1909)"/><path d="M159.371 136.716C156.345 137.846 152.594 139.764 150.271 141.789L152.104 136.716 150.271 131.644C152.594 133.669 156.345 135.587 159.371 136.716Z" transform="matrix(1 0 0 1.00045 42.4075 1909)"/><path d="M513.341 109.821 513.341 86.9741" stroke="#000000" stroke-width="1.0656" stroke-miterlimit="10" fill="none" transform="matrix(1 0 0 1.00045 42.4075 1909)"/><path d="M513.341 80.5592C514.471 83.5855 516.389 87.3364 518.414 89.6594L513.341 87.8266 508.269 89.6594C510.294 87.3364 512.212 83.5855 513.341 80.5592Z" transform="matrix(1 0 0 1.00045 42.4075 1909)"/><text font-family="Arial,Arial_MSFontService,sans-serif" font-weight="400" font-size="8" transform="matrix(2.1312 0 0 2.13216 525.013 1986)">param</text><text font-family="Arial,Arial_MSFontService,sans-serif" font-weight="400" font-size="8" transform="matrix(2.1312 0 0 2.13216 571.899 1986)">-</text><text font-family="Arial,Arial_MSFontService,sans-serif" font-weight="400" font-size="8" transform="matrix(2.1312 0 0 2.13216 578.293 1986)">2</text><text fill="#1C75BC" font-family="Arial,Arial_MSFontService,sans-serif" font-weight="400" font-size="8" transform="matrix(2.1312 0 0 2.13216 519.529 1969)">(</text><text fill="#1C75BC" font-family="Arial,Arial_MSFontService,sans-serif" font-weight="400" font-size="8" transform="matrix(2.1312 0 0 2.13216 525.923 1969)">action</text><text fill="#1C75BC" font-family="Arial,Arial_MSFontService,sans-serif" font-weight="400" font-size="8" transform="matrix(2.1312 0 0 2.13216 568.547 1969)">-</text><text fill="#1C75BC" font-family="Arial,Arial_MSFontService,sans-serif" font-weight="400" font-size="8" transform="matrix(2.1312 0 0 2.13216 574.94 1969)">2</text><text fill="#1C75BC" font-family="Arial,Arial_MSFontService,sans-serif" font-weight="400" font-size="8" transform="matrix(2.1312 0 0 2.13216 583.465 1969)">)</text><path d="M227.122 150.825 184.455 150.825C176.698 150.825 170.325 144.474 170.325 136.695L170.325 136.695C170.325 128.937 176.676 122.565 184.455 122.565L227.122 122.565C234.879 122.565 241.251 128.916 241.251 136.695L241.251 136.695C241.251 144.474 234.901 150.825 227.122 150.825Z" stroke="#FFFFFF" stroke-width="0.532799" stroke-miterlimit="10" fill="#E89124" transform="matrix(1 0 0 1.00045 42.4075 1909)"/><text fill="#FFFFFF" font-family="Arial,Arial_MSFontService,sans-serif" font-weight="400" font-size="8" transform="matrix(2.1312 0 0 2.13216 220.448 2052)">context</text><path d="" stroke="#FFFFFF" stroke-width="6.39359" stroke-miterlimit="10" fill="none" transform="matrix(1 0 0 1.00045 42.4075 1909)"/><text fill="#1C75BC" font-family="Arial,Arial_MSFontService,sans-serif" font-weight="400" font-size="8" transform="matrix(2.1312 0 0 2.13216 258.869 2074)">(</text><text fill="#1C75BC" font-family="Arial,Arial_MSFontService,sans-serif" font-weight="400" font-size="8" transform="matrix(2.1312 0 0 2.13216 265.262 2074)">state</text><text fill="#1C75BC" font-family="Arial,Arial_MSFontService,sans-serif" font-weight="400" font-size="8" transform="matrix(2.1312 0 0 2.13216 299.362 2074)">-</text><text fill="#1C75BC" font-family="Arial,Arial_MSFontService,sans-serif" font-weight="400" font-size="8" transform="matrix(2.1312 0 0 2.13216 305.755 2074)">1</text><text fill="#1C75BC" font-family="Arial,Arial_MSFontService,sans-serif" font-weight="400" font-size="8" transform="matrix(2.1312 0 0 2.13216 314.28 2074)">)</text><path d="M426.474 150.825 383.807 150.825C376.05 150.825 369.677 144.474 369.677 136.695L369.677 136.695C369.677 128.937 376.028 122.565 383.807 122.565L426.474 122.565C434.231 122.565 440.604 128.916 440.604 136.695L440.604 136.695C440.582 144.474 434.231 150.825 426.474 150.825Z" stroke="#FFFFFF" stroke-width="0.532799" stroke-miterlimit="10" fill="#E89124" transform="matrix(1 0 0 1.00045 42.4075 1909)"/><text fill="#FFFFFF" font-family="Arial,Arial_MSFontService,sans-serif" font-weight="400" font-size="8" transform="matrix(2.1312 0 0 2.13216 419.787 2052)">context</text><path d="" stroke="#FFFFFF" stroke-width="6.39359" stroke-miterlimit="10" fill="none" transform="matrix(1 0 0 1.00045 42.4075 1909)"/><text fill="#1C75BC" font-family="Arial,Arial_MSFontService,sans-serif" font-weight="400" font-size="8" transform="matrix(2.1312 0 0 2.13216 456.077 2074)">(</text><text fill="#1C75BC" font-family="Arial,Arial_MSFontService,sans-serif" font-weight="400" font-size="8" transform="matrix(2.1312 0 0 2.13216 462.471 2074)">state</text><text fill="#1C75BC" font-family="Arial,Arial_MSFontService,sans-serif" font-weight="400" font-size="8" transform="matrix(2.1312 0 0 2.13216 496.57 2074)">-</text><text fill="#1C75BC" font-family="Arial,Arial_MSFontService,sans-serif" font-weight="400" font-size="8" transform="matrix(2.1312 0 0 2.13216 502.963 2074)">2</text><text fill="#1C75BC" font-family="Arial,Arial_MSFontService,sans-serif" font-weight="400" font-size="8" transform="matrix(2.1312 0 0 2.13216 511.488 2074)">)</text><path d="M622.736 150.825 580.069 150.825C572.312 150.825 565.939 144.474 565.939 136.695L565.939 136.695C565.939 128.937 572.29 122.565 580.069 122.565L622.736 122.565C630.493 122.565 636.865 128.916 636.865 136.695L636.865 136.695C636.865 144.474 630.515 150.825 622.736 150.825Z" stroke="#FFFFFF" stroke-width="0.532799" stroke-miterlimit="10" fill="#E89124" transform="matrix(1 0 0 1.00045 42.4075 1909)"/><text fill="#FFFFFF" font-family="Arial,Arial_MSFontService,sans-serif" font-weight="400" font-size="8" transform="matrix(2.1312 0 0 2.13216 616.068 2052)">context</text><path d="" stroke="#FFFFFF" stroke-width="6.39359" stroke-miterlimit="10" fill="none" transform="matrix(1 0 0 1.00045 42.4075 1909)"/><text fill="#1C75BC" font-family="Arial,Arial_MSFontService,sans-serif" font-weight="400" font-size="8" transform="matrix(2.1312 0 0 2.13216 641.702 2074)">(</text><text fill="#1C75BC" font-family="Arial,Arial_MSFontService,sans-serif" font-weight="400" font-size="8" transform="matrix(2.1312 0 0 2.13216 648.096 2074)">state</text><text fill="#1C75BC" font-family="Arial,Arial_MSFontService,sans-serif" font-weight="400" font-size="8" transform="matrix(2.1312 0 0 2.13216 682.195 2074)">-</text><text fill="#1C75BC" font-family="Arial,Arial_MSFontService,sans-serif" font-weight="400" font-size="8" transform="matrix(2.1312 0 0 2.13216 688.588 2074)">3</text><text fill="#1C75BC" font-family="Arial,Arial_MSFontService,sans-serif" font-weight="400" font-size="8" transform="matrix(2.1312 0 0 2.13216 697.113 2074)">)</text><path d="M620.37 184.69 750.97 184.69 750.97 229.338 620.37 229.338Z" fill="#1C75BC" transform="matrix(1 0 0 1.00045 42.4075 1909)"/><text fill="#FFFFFF" font-family="Arial,Arial_MSFontService,sans-serif" font-weight="400" font-size="8" transform="matrix(2.1312 0 0 2.13216 688.55 2110)">RL reward</text><text fill="#FFFFFF" font-family="Arial,Arial_MSFontService,sans-serif" font-weight="400" font-size="8" transform="matrix(2.1312 0 0 2.13216 663.913 2131)">(</text><text fill="#FFFFFF" font-family="Arial,Arial_MSFontService,sans-serif" font-weight="400" font-size="8" transform="matrix(2.1312 0 0 2.13216 670.307 2131)">PPA estimation</text><text fill="#FFFFFF" font-family="Arial,Arial_MSFontService,sans-serif" font-weight="400" font-size="8" transform="matrix(2.1312 0 0 2.13216 778.998 2131)">)</text><path d="M866.95 179.958 955.202 179.958 955.202 230.063 866.95 230.063Z" fill="#662D91" transform="matrix(1 0 0 1.00045 42.4075 1909)"/><text fill="#FFFFFF" font-family="Arial,Arial_MSFontService,sans-serif" font-weight="400" font-size="8" transform="matrix(2.1312 0 0 2.13216 935.628 2110)">PPA</text><text fill="#FFFFFF" font-family="Arial,Arial_MSFontService,sans-serif" font-weight="400" font-size="8" transform="matrix(2.1312 0 0 2.13216 916.682 2130)">Estimator</text><path d="M588.317 264.545 670.176 264.545 670.176 310.792 588.317 310.792Z" fill="#662D91" transform="matrix(1 0 0 1.00045 42.4075 1909)"/><text fill="#FFFFFF" font-family="Arial,Arial_MSFontService,sans-serif" font-weight="400" font-size="8" transform="matrix(2.1312 0 0 2.13216 634.639 2193)">Synopsys</text><text fill="#FFFFFF" font-family="Arial,Arial_MSFontService,sans-serif" font-weight="400" font-size="8" transform="matrix(2.1312 0 0 2.13216 652.179 2213)">ICC</text><text fill="#FFFFFF" font-family="Arial,Arial_MSFontService,sans-serif" font-weight="400" font-size="8" transform="matrix(2.1312 0 0 2.13216 682.016 2213)">2</text><path d="M663.548 136.716 690.529 136.716" stroke="#000000" stroke-width="1.0656" stroke-miterlimit="10" fill="none" transform="matrix(1 0 0 1.00045 42.4075 1909)"/><path d="M696.965 136.716C693.939 137.846 690.188 139.764 687.865 141.789L689.698 136.716 687.865 131.644C690.188 133.669 693.939 135.587 696.965 136.716Z" transform="matrix(1 0 0 1.00045 42.4075 1909)"/><path d="M861.217 207.877 763.437 207.877" stroke="#000000" stroke-width="1.0656" stroke-miterlimit="10" fill="none" transform="matrix(1 0 0 1.00045 42.4075 1909)"/><path d="M757.001 207.877C760.027 206.747 763.778 204.829 766.101 202.805L764.268 207.877 766.101 212.949C763.778 210.903 760.027 208.985 757.001 207.877Z" transform="matrix(1 0 0 1.00045 42.4075 1909)"/><path d="M873.982 136.802 873.982 169.153" stroke="#000000" stroke-width="1.0656" stroke-miterlimit="10" fill="none" transform="matrix(1 0 0 1.00045 42.4075 1909)"/><path d="M873.982 175.589C872.853 172.563 870.935 168.812 868.91 166.489L873.982 168.322 879.055 166.489C877.009 168.812 875.091 172.563 873.982 175.589Z" transform="matrix(1 0 0 1.00045 42.4075 1909)"/><path d="M942.735 134.18 942.735 169.622" stroke="#000000" stroke-width="1.0656" stroke-miterlimit="10" fill="none" transform="matrix(1 0 0 1.00045 42.4075 1909)"/><path d="M942.735 176.058C941.605 173.032 939.687 169.281 937.663 166.958L942.735 168.791 947.807 166.958C945.782 169.281 943.864 173.032 942.735 176.058Z" transform="matrix(1 0 0 1.00045 42.4075 1909)"/><path d="M729.935 109.821 729.935 86.9741" stroke="#000000" stroke-width="1.0656" stroke-miterlimit="10" fill="none" transform="matrix(1 0 0 1.00045 42.4075 1909)"/><path d="M729.935 80.5592C731.064 83.5855 732.982 87.3364 735.007 89.6594L729.935 87.8266 724.863 89.6594C726.909 87.3364 728.827 83.5855 729.935 80.5592Z" transform="matrix(1 0 0 1.00045 42.4075 1909)"/><text font-family="Arial,Arial_MSFontService,sans-serif" font-weight="400" font-size="8" transform="matrix(2.1312 0 0 2.13216 741.148 1986)">param</text><text font-family="Arial,Arial_MSFontService,sans-serif" font-weight="400" font-size="8" transform="matrix(2.1312 0 0 2.13216 788.034 1986)">-</text><text font-family="Arial,Arial_MSFontService,sans-serif" font-weight="400" font-size="8" transform="matrix(2.1312 0 0 2.13216 794.428 1986)">T</text><text fill="#1C75BC" font-family="Arial,Arial_MSFontService,sans-serif" font-weight="400" font-size="8" transform="matrix(2.1312 0 0 2.13216 735.664 1969)">(</text><text fill="#1C75BC" font-family="Arial,Arial_MSFontService,sans-serif" font-weight="400" font-size="8" transform="matrix(2.1312 0 0 2.13216 742.058 1969)">action</text><text fill="#1C75BC" font-family="Arial,Arial_MSFontService,sans-serif" font-weight="400" font-size="8" transform="matrix(2.1312 0 0 2.13216 784.682 1969)">-</text><text fill="#1C75BC" font-family="Arial,Arial_MSFontService,sans-serif" font-weight="400" font-size="8" transform="matrix(2.1312 0 0 2.13216 791.076 1969)">T</text><text fill="#1C75BC" font-family="Arial,Arial_MSFontService,sans-serif" font-weight="400" font-size="8" transform="matrix(2.1312 0 0 2.13216 801.732 1969)">)</text><path d="M355.484 69.2639 356.549 69.2639" stroke="#000000" stroke-width="1.0656" stroke-miterlimit="10" fill="none" transform="matrix(1 0 0 1.00045 42.4075 1909)"/><path d="M358.702 69.2639 469.46 69.2639" stroke="#000000" stroke-width="1.0656" stroke-miterlimit="10" stroke-dasharray="2.1508 2.1508" fill="none" transform="matrix(1 0 0 1.00045 42.4075 1909)"/><path d="M470.526 69.2639 471.591 69.2639 471.591 70.3295" stroke="#000000" stroke-width="1.0656" stroke-miterlimit="10" fill="none" transform="matrix(1 0 0 1.00045 42.4075 1909)"/><path d="M471.591 72.5459 471.591 115.703" stroke="#000000" stroke-width="1.0656" stroke-miterlimit="10" stroke-dasharray="2.21346 2.21346" fill="none" transform="matrix(1 0 0 1.00045 42.4075 1909)"/><path d="M471.591 116.811 471.591 117.876" stroke="#000000" stroke-width="1.0656" stroke-miterlimit="10" fill="none" transform="matrix(1 0 0 1.00045 42.4075 1909)"/><path d="M471.591 124.313C470.462 121.286 468.544 117.535 466.519 115.213L471.591 117.045 476.663 115.213C474.639 117.535 472.721 121.286 471.591 124.313Z" transform="matrix(1 0 0 1.00045 42.4075 1909)"/><path d="M132.667 71.5443 133.733 71.5443" stroke="#000000" stroke-width="1.0656" stroke-miterlimit="10" fill="none" transform="matrix(1 0 0 1.00045 42.4075 1909)"/><path d="M135.949 71.5443 156.856 71.5443" stroke="#000000" stroke-width="1.0656" stroke-miterlimit="10" stroke-dasharray="2.20131 2.20131" fill="none" transform="matrix(1 0 0 1.00045 42.4075 1909)"/><path d="M157.964 71.5443 159.03 71.5443 159.03 72.6099" stroke="#000000" stroke-width="1.0656" stroke-miterlimit="10" fill="none" transform="matrix(1 0 0 1.00045 42.4075 1909)"/><path d="M159.03 74.6984 159.03 123.844" stroke="#000000" stroke-width="1.0656" stroke-miterlimit="10" stroke-dasharray="2.09113 2.09113" fill="none" transform="matrix(1 0 0 1.00045 42.4075 1909)"/><path d="M159.03 124.888 159.03 125.954" stroke="#000000" stroke-width="1.0656" stroke-miterlimit="10" fill="none" transform="matrix(1 0 0 1.00045 42.4075 1909)"/><path d="M159.03 132.39C157.9 129.364 155.982 125.613 153.958 123.29L159.03 125.123 164.102 123.29C162.056 125.613 160.138 129.364 159.03 132.39Z" transform="matrix(1 0 0 1.00045 42.4075 1909)"/><path d="M961.553 133.2 923.938 133.2C916.18 133.2 909.808 126.849 909.808 119.07L909.808 104.961C909.808 97.2039 916.159 90.8316 923.938 90.8316L961.553 90.8316C969.311 90.8316 975.683 97.1826 975.683 104.961L975.683 119.07C975.662 126.849 969.311 133.2 961.553 133.2Z" stroke="#FFFFFF" stroke-width="0.532799" stroke-miterlimit="10" fill="#BE1E2D" transform="matrix(1 0 0 1.00045 42.4075 1909)"/><path d="" stroke="#FFFFFF" stroke-width="6.39359" stroke-miterlimit="10" fill="none" transform="matrix(1 0 0 1.00045 42.4075 1909)"/><text font-family="Arial,Arial_MSFontService,sans-serif" font-weight="400" font-size="8" transform="matrix(2.1312 0 0 2.13216 686.357 2047)">...</text><text font-family="Arial,Arial_MSFontService,sans-serif" font-weight="400" font-size="8" transform="matrix(2.1312 0 0 2.13216 113.071 1976)">fixed</text><text font-family="Arial,Arial_MSFontService,sans-serif" font-weight="400" font-size="8" transform="matrix(2.1312 0 0 2.13216 102.649 1996)">params</text><path d="M105.004 95.7334 72.823 95.7334C61.7408 95.7334 52.6832 86.6758 52.6832 75.5936L52.6832 69.818C52.6832 58.7358 61.7408 49.6782 72.823 49.6782L105.004 49.6782C116.086 49.6782 125.144 58.7358 125.144 69.818L125.144 75.5936C125.144 86.6758 116.065 95.7334 105.004 95.7334Z" stroke="#000000" stroke-width="0.532799" stroke-miterlimit="10" fill="none" transform="matrix(1 0 0 1.00045 42.4075 1909)"/><path d="M552.214 69.2639 553.28 69.2639" stroke="#000000" stroke-width="1.0656" stroke-miterlimit="10" fill="none" transform="matrix(1 0 0 1.00045 42.4075 1909)"/><path d="M555.454 69.2639 637.398 69.2639" stroke="#000000" stroke-width="1.0656" stroke-miterlimit="10" stroke-dasharray="2.1849 2.1849" fill="none" transform="matrix(1 0 0 1.00045 42.4075 1909)"/><path d="M638.485 69.2639 639.551 69.2639 639.551 70.3295" stroke="#000000" stroke-width="1.0656" stroke-miterlimit="10" fill="none" transform="matrix(1 0 0 1.00045 42.4075 1909)"/><path d="M639.551 72.4181 639.551 113.145" stroke="#000000" stroke-width="1.0656" stroke-miterlimit="10" stroke-dasharray="2.08836 2.08836" fill="none" transform="matrix(1 0 0 1.00045 42.4075 1909)"/><path d="M639.551 114.19 639.551 115.255" stroke="#000000" stroke-width="1.0656" stroke-miterlimit="10" fill="none" transform="matrix(1 0 0 1.00045 42.4075 1909)"/><path d="M639.551 121.691C638.421 118.665 636.503 114.914 634.479 112.591L639.551 114.424 644.623 112.591C642.598 114.893 640.68 118.665 639.551 121.691Z" transform="matrix(1 0 0 1.00045 42.4075 1909)"/><path d="M614.616 207.877 613.55 207.877" stroke="#000000" stroke-width="1.0656" stroke-miterlimit="10" fill="none" transform="matrix(1 0 0 1.00045 42.4075 1909)"/><path d="M611.419 207.877 319.253 207.877" stroke="#000000" stroke-width="1.0656" stroke-miterlimit="10" stroke-dasharray="2.12502 2.12502" fill="none" transform="matrix(1 0 0 1.00045 42.4075 1909)"/><path d="M318.188 207.877 317.122 207.877 317.122 206.811" stroke="#000000" stroke-width="1.0656" stroke-miterlimit="10" fill="none" transform="matrix(1 0 0 1.00045 42.4075 1909)"/><path d="M317.122 204.552 317.122 174.14" stroke="#000000" stroke-width="1.0656" stroke-miterlimit="10" stroke-dasharray="2.25204 2.25204" fill="none" transform="matrix(1 0 0 1.00045 42.4075 1909)"/><path d="M317.122 173.032 317.122 171.966" stroke="#000000" stroke-width="1.0656" stroke-miterlimit="10" fill="none" transform="matrix(1 0 0 1.00045 42.4075 1909)"/><path d="M317.122 165.53C318.252 168.556 320.17 172.307 322.194 174.63L317.122 172.797 312.05 174.63C314.074 172.307 315.993 168.556 317.122 165.53Z" transform="matrix(1 0 0 1.00045 42.4075 1909)"/><text fill="#FFFFFF" font-family="Arial,Arial_MSFontService,sans-serif" font-weight="400" font-size="8" transform="matrix(2.1312 0 0 2.13216 974.011 2015)">all </text><text fill="#FFFFFF" font-family="Arial,Arial_MSFontService,sans-serif" font-weight="400" font-size="8" transform="matrix(2.1312 0 0 2.13216 956.493 2036)">params</text><path d="" stroke="#FFFFFF" stroke-width="6.39359" stroke-miterlimit="10" fill="none" transform="matrix(1 0 0 1.00045 42.4075 1909)"/><text font-family="Arial,Arial_MSFontService,sans-serif" font-weight="400" font-size="8" transform="matrix(2.1312 0 0 2.13216 447.328 2108)"> Online PPO update</text><path d="M7.80018 241.017 8.86578 241.017" stroke="#000000" stroke-width="0.532799" stroke-miterlimit="10" fill="none" transform="matrix(1 0 0 1.00045 42.4075 1909)"/><path d="M10.997 241.017 1051.98 241.017" stroke="#000000" stroke-width="0.532799" stroke-miterlimit="10" stroke-dasharray="2.13525 2.13525" fill="none" transform="matrix(1 0 0 1.00045 42.4075 1909)"/><path d="M1053.05 241.017 1054.11 241.017" stroke="#000000" stroke-width="0.532799" stroke-miterlimit="10" fill="none" transform="matrix(1 0 0 1.00045 42.4075 1909)"/><text font-family="Arial,Arial_MSFontService,sans-serif" font-weight="400" font-size="8" transform="matrix(2.1312 0 0 2.13216 1028.59 2112)">Sample</text><text font-family="Arial,Arial_MSFontService,sans-serif" font-weight="400" font-size="8" transform="matrix(2.1312 0 0 2.13216 1034.75 2133)">Buffer</text><path d="M210.733 258.514 210.733 307.596 210.797 307.596C211.5 313.435 229.232 318.124 251.076 318.124 272.921 318.124 290.674 313.435 291.356 307.596L291.42 307.596 291.42 258.514 210.733 258.514Z" stroke="#000000" stroke-width="1.0656" stroke-miterlimit="10" fill="none" transform="matrix(1 0 0 1.00045 42.4075 1909)"/><path d="M291.462 258.514C291.462 264.517 273.391 269.383 251.098 269.383 228.805 269.383 210.733 264.517 210.733 258.514 210.733 252.511 228.805 247.645 251.098 247.645 273.39 247.645 291.462 252.511 291.462 258.514Z" stroke="#000000" stroke-width="1.0656" stroke-miterlimit="10" fill="#FFFFFF" transform="matrix(1 0 0 1.00045 42.4075 1909)"/><text font-family="Arial,Arial_MSFontService,sans-serif" font-weight="400" font-size="8" transform="matrix(2.1312 0 0 2.13216 265.088 2197)">Sample</text><text font-family="Arial,Arial_MSFontService,sans-serif" font-weight="400" font-size="8" transform="matrix(2.1312 0 0 2.13216 271.247 2218)">Buffer</text><path d="M827.821 291.782 828.886 291.782" stroke="#000000" stroke-width="1.0656" stroke-miterlimit="10" fill="none" transform="matrix(1 0 0 1.00045 42.4075 1909)"/><path d="M830.975 291.782 925.92 291.782" stroke="#000000" stroke-width="1.0656" stroke-miterlimit="10" stroke-dasharray="2.08665 2.08665" fill="none" transform="matrix(1 0 0 1.00045 42.4075 1909)"/><path d="M926.964 291.782 928.03 291.782 928.03 290.717" stroke="#000000" stroke-width="1.0656" stroke-miterlimit="10" fill="none" transform="matrix(1 0 0 1.00045 42.4075 1909)"/><path d="M928.03 288.628 928.03 256.383" stroke="#000000" stroke-width="1.0656" stroke-miterlimit="10" stroke-dasharray="2.08111 2.08111" fill="none" transform="matrix(1 0 0 1.00045 42.4075 1909)"/><path d="M928.03 255.339 928.03 254.273" stroke="#000000" stroke-width="1.0656" stroke-miterlimit="10" fill="none" transform="matrix(1 0 0 1.00045 42.4075 1909)"/><path d="M928.03 247.837C929.159 250.863 931.077 254.614 933.102 256.937L928.03 255.104 922.957 256.937C924.982 254.614 926.9 250.863 928.03 247.837Z" transform="matrix(1 0 0 1.00045 42.4075 1909)"/><text font-family="Arial,Arial_MSFontService,sans-serif" font-weight="400" font-size="8" transform="matrix(2.1312 0 0 2.13216 903.492 2221)">Offline MSE update</text><text font-family="Arial,Arial_MSFontService,sans-serif" font-weight="400" font-size="8" transform="matrix(2.1312 0 0 2.13216 92.7387 2124)">Online</text><text font-family="Arial,Arial_MSFontService,sans-serif" font-weight="400" font-size="8" transform="matrix(2.1312 0 0 2.13216 145.784 2124)"> RL Parameters Tuning</text><text font-family="Arial,Arial_MSFontService,sans-serif" font-weight="400" font-size="8" transform="matrix(2.1312 0 0 2.13216 93.5253 2247)">Offline</text><text font-family="Arial,Arial_MSFontService,sans-serif" font-weight="400" font-size="8" transform="matrix(2.1312 0 0 2.13216 147.509 2247)">  PPA estimator training</text><path d="M983.547 140.915 983.547 141.98 982.482 141.98" stroke="#000000" stroke-width="0.532799" stroke-miterlimit="10" fill="none" transform="matrix(1 0 0 1.00045 42.4075 1909)"/><path d="M980.329 141.98 839.372 141.98" stroke="#000000" stroke-width="0.532799" stroke-miterlimit="10" stroke-dasharray="2.15208 2.15208" fill="none" transform="matrix(1 0 0 1.00045 42.4075 1909)"/><path d="M838.285 141.98 837.219 141.98 837.219 140.915" stroke="#000000" stroke-width="0.532799" stroke-miterlimit="10" fill="none" transform="matrix(1 0 0 1.00045 42.4075 1909)"/><path d="M837.219 138.869 837.219 90.448" stroke="#000000" stroke-width="0.532799" stroke-miterlimit="10" stroke-dasharray="2.06001 2.06001" fill="none" transform="matrix(1 0 0 1.00045 42.4075 1909)"/><path d="M837.219 89.425 837.219 88.3594 838.285 88.3594" stroke="#000000" stroke-width="0.532799" stroke-miterlimit="10" fill="none" transform="matrix(1 0 0 1.00045 42.4075 1909)"/><path d="M840.437 88.3594 981.395 88.3594" stroke="#000000" stroke-width="0.532799" stroke-miterlimit="10" stroke-dasharray="2.15208 2.15208" fill="none" transform="matrix(1 0 0 1.00045 42.4075 1909)"/><path d="M982.482 88.3594 983.547 88.3594 983.547 89.425" stroke="#000000" stroke-width="0.532799" stroke-miterlimit="10" fill="none" transform="matrix(1 0 0 1.00045 42.4075 1909)"/><path d="M983.547 91.471 983.547 139.892" stroke="#000000" stroke-width="0.532799" stroke-miterlimit="10" stroke-dasharray="2.06001 2.06001" fill="none" transform="matrix(1 0 0 1.00045 42.4075 1909)"/><path d="M766.655 69.2639 942.735 69.2639 942.735 81.9232" stroke="#000000" stroke-width="1.0656" stroke-miterlimit="10" fill="none" transform="matrix(1 0 0 1.00045 42.4075 1909)"/><path d="M942.735 88.3594C941.605 85.3331 939.687 81.5822 937.663 79.2592L942.735 81.092 947.807 79.2592C945.782 81.5822 943.864 85.3331 942.735 88.3594Z" transform="matrix(1 0 0 1.00045 42.4075 1909)"/><path d="M985.423 115.17 1016.47 115.17 1016.47 167.938" stroke="#000000" stroke-width="1.0656" stroke-miterlimit="10" fill="none" transform="matrix(1 0 0 1.00045 42.4075 1909)"/><path d="M1016.47 174.375C1015.34 171.348 1013.43 167.597 1011.4 165.274L1016.47 167.107 1021.55 165.274C1019.5 167.597 1017.6 171.348 1016.47 174.375Z" transform="matrix(1 0 0 1.00045 42.4075 1909)"/><path d="M517.305 317.335 517.305 318.401 516.24 318.401" stroke="#000000" stroke-width="0.532799" stroke-miterlimit="10" fill="none" transform="matrix(1 0 0 1.00045 42.4075 1909)"/><path d="M514.087 318.401 338.327 318.401" stroke="#000000" stroke-width="0.532799" stroke-miterlimit="10" stroke-dasharray="2.15656 2.15656" fill="none" transform="matrix(1 0 0 1.00045 42.4075 1909)"/><path d="M337.241 318.401 336.175 318.401 336.175 317.335" stroke="#000000" stroke-width="0.532799" stroke-miterlimit="10" fill="none" transform="matrix(1 0 0 1.00045 42.4075 1909)"/><path d="M336.175 315.247 336.175 249.478" stroke="#000000" stroke-width="0.532799" stroke-miterlimit="10" stroke-dasharray="2.08815 2.08815" fill="none" transform="matrix(1 0 0 1.00045 42.4075 1909)"/><path d="M336.175 248.434 336.175 247.368 337.241 247.368" stroke="#000000" stroke-width="0.532799" stroke-miterlimit="10" fill="none" transform="matrix(1 0 0 1.00045 42.4075 1909)"/><path d="M339.414 247.368 515.174 247.368" stroke="#000000" stroke-width="0.532799" stroke-miterlimit="10" stroke-dasharray="2.15656 2.15656" fill="none" transform="matrix(1 0 0 1.00045 42.4075 1909)"/><path d="M516.24 247.368 517.305 247.368 517.305 248.434" stroke="#000000" stroke-width="0.532799" stroke-miterlimit="10" fill="none" transform="matrix(1 0 0 1.00045 42.4075 1909)"/><path d="M517.305 250.522 517.305 316.291" stroke="#000000" stroke-width="0.532799" stroke-miterlimit="10" stroke-dasharray="2.08815 2.08815" fill="none" transform="matrix(1 0 0 1.00045 42.4075 1909)"/><text font-family="Arial,Arial_MSFontService,sans-serif" font-weight="400" font-size="8" transform="matrix(2.1312 0 0 2.13216 123.591 2185)">pre</text><text font-family="Arial,Arial_MSFontService,sans-serif" font-weight="400" font-size="8" transform="matrix(2.1312 0 0 2.13216 147.034 2185)">-</text><text font-family="Arial,Arial_MSFontService,sans-serif" font-weight="400" font-size="8" transform="matrix(2.1312 0 0 2.13216 153.428 2185)">selected</text><text font-family="Arial,Arial_MSFontService,sans-serif" font-weight="400" font-size="8" transform="matrix(2.1312 0 0 2.13216 122.634 2216)">newly added</text><text font-family="Arial,Arial_MSFontService,sans-serif" font-weight="400" font-size="8" transform="matrix(2.1312 0 0 2.13216 1004.9 1972)">add to later </text><text font-family="Arial,Arial_MSFontService,sans-serif" font-weight="400" font-size="8" transform="matrix(2.1312 0 0 2.13216 1004.9 1993)">offline training</text><g><path d="M-10.7182-2.97259 0.0328204-2.97259 0.0328204-6.16086 10.7182 0 0.0328204 6.16086 0.0328204 2.97259-10.7182 2.97259Z" transform="matrix(1 0 0 -1.402 354.702 2196.79)"/></g><text fill="#ED1C24" font-family="Arial,Arial_MSFontService,sans-serif" font-weight="400" font-size="8" transform="matrix(2.1312 0 0 2.13216 717.816 2185)">(</text><text fill="#ED1C24" font-family="Arial,Arial_MSFontService,sans-serif" font-weight="400" font-size="8" transform="matrix(2.1312 0 0 2.13216 724.209 2185)">1</text><text fill="#ED1C24" font-family="Arial,Arial_MSFontService,sans-serif" font-weight="400" font-size="8" transform="matrix(2.1312 0 0 2.13216 732.734 2185)">~</text><text fill="#ED1C24" font-family="Arial,Arial_MSFontService,sans-serif" font-weight="400" font-size="8" transform="matrix(2.1312 0 0 2.13216 743.39 2185)">6 </text><text fill="#ED1C24" font-family="Arial,Arial_MSFontService,sans-serif" font-weight="400" font-size="8" transform="matrix(2.1312 0 0 2.13216 756.177 2185)">hrs</text><text fill="#ED1C24" font-family="Arial,Arial_MSFontService,sans-serif" font-weight="400" font-size="8" transform="matrix(2.1312 0 0 2.13216 779.62 2185)">)</text><text fill="#ED1C24" font-family="Arial,Arial_MSFontService,sans-serif" font-weight="400" font-size="8" transform="matrix(2.1312 0 0 2.13216 800.108 2141)">(</text><text fill="#ED1C24" font-family="Arial,Arial_MSFontService,sans-serif" font-weight="400" font-size="8" transform="matrix(2.1312 0 0 2.13216 806.501 2141)">&lt; </text><text fill="#ED1C24" font-family="Arial,Arial_MSFontService,sans-serif" font-weight="400" font-size="8" transform="matrix(2.1312 0 0 2.13216 821.42 2141)">5 </text><text fill="#ED1C24" font-family="Arial,Arial_MSFontService,sans-serif" font-weight="400" font-size="8" transform="matrix(2.1312 0 0 2.13216 834.207 2141)">seconds</text><text fill="#ED1C24" font-family="Arial,Arial_MSFontService,sans-serif" font-weight="400" font-size="8" transform="matrix(2.1312 0 0 2.13216 893.88 2141)">)</text></g></svg>